<svg xmlns="http://www.w3.org/2000/svg" xmlns:xlink="http://www.w3.org/1999/xlink" width="600" height="400" viewBox="0 0 2400 1600">
<defs>
  <clipPath id="clip000">
    <rect x="0" y="0" width="2400" height="1600"></rect>
  </clipPath>
</defs>
<path clip-path="url(#clip000)" d="M0 1600 L2400 1600 L2400 0 L0 0  Z" fill="#ffffff" fill-rule="evenodd" fill-opacity="1"></path>
<defs>
  <clipPath id="clip001">
    <rect x="480" y="0" width="1681" height="1600"></rect>
  </clipPath>
</defs>
<path clip-path="url(#clip000)" d="M175.445 1423.18 L2352.76 1423.18 L2352.76 123.472 L175.445 123.472  Z" fill="#ffffff" fill-rule="evenodd" fill-opacity="1"></path>
<defs>
  <clipPath id="clip002">
    <rect x="175" y="123" width="2178" height="1301"></rect>
  </clipPath>
</defs>
<polyline clip-path="url(#clip002)" style="stroke:#000000; stroke-linecap:round; stroke-linejoin:round; stroke-width:2; stroke-opacity:0.1; fill:none" points="499.18,1423.18 499.18,123.472 "></polyline>
<polyline clip-path="url(#clip002)" style="stroke:#000000; stroke-linecap:round; stroke-linejoin:round; stroke-width:2; stroke-opacity:0.1; fill:none" points="1009.13,1423.18 1009.13,123.472 "></polyline>
<polyline clip-path="url(#clip002)" style="stroke:#000000; stroke-linecap:round; stroke-linejoin:round; stroke-width:2; stroke-opacity:0.1; fill:none" points="1519.07,1423.18 1519.07,123.472 "></polyline>
<polyline clip-path="url(#clip002)" style="stroke:#000000; stroke-linecap:round; stroke-linejoin:round; stroke-width:2; stroke-opacity:0.1; fill:none" points="2029.02,1423.18 2029.02,123.472 "></polyline>
<polyline clip-path="url(#clip002)" style="stroke:#000000; stroke-linecap:round; stroke-linejoin:round; stroke-width:2; stroke-opacity:0.1; fill:none" points="175.445,1423.18 2352.76,1423.18 "></polyline>
<polyline clip-path="url(#clip002)" style="stroke:#000000; stroke-linecap:round; stroke-linejoin:round; stroke-width:2; stroke-opacity:0.1; fill:none" points="175.445,1237.51 2352.76,1237.51 "></polyline>
<polyline clip-path="url(#clip002)" style="stroke:#000000; stroke-linecap:round; stroke-linejoin:round; stroke-width:2; stroke-opacity:0.1; fill:none" points="175.445,1051.83 2352.76,1051.83 "></polyline>
<polyline clip-path="url(#clip002)" style="stroke:#000000; stroke-linecap:round; stroke-linejoin:round; stroke-width:2; stroke-opacity:0.1; fill:none" points="175.445,866.162 2352.76,866.162 "></polyline>
<polyline clip-path="url(#clip002)" style="stroke:#000000; stroke-linecap:round; stroke-linejoin:round; stroke-width:2; stroke-opacity:0.1; fill:none" points="175.445,680.49 2352.76,680.49 "></polyline>
<polyline clip-path="url(#clip002)" style="stroke:#000000; stroke-linecap:round; stroke-linejoin:round; stroke-width:2; stroke-opacity:0.1; fill:none" points="175.445,494.817 2352.76,494.817 "></polyline>
<polyline clip-path="url(#clip002)" style="stroke:#000000; stroke-linecap:round; stroke-linejoin:round; stroke-width:2; stroke-opacity:0.1; fill:none" points="175.445,309.145 2352.76,309.145 "></polyline>
<polyline clip-path="url(#clip002)" style="stroke:#000000; stroke-linecap:round; stroke-linejoin:round; stroke-width:2; stroke-opacity:0.1; fill:none" points="175.445,123.472 2352.76,123.472 "></polyline>
<polyline clip-path="url(#clip000)" style="stroke:#000000; stroke-linecap:round; stroke-linejoin:round; stroke-width:4; stroke-opacity:1; fill:none" points="175.445,1423.18 2352.76,1423.18 "></polyline>
<polyline clip-path="url(#clip000)" style="stroke:#000000; stroke-linecap:round; stroke-linejoin:round; stroke-width:4; stroke-opacity:1; fill:none" points="499.18,1423.18 499.18,1404.28 "></polyline>
<polyline clip-path="url(#clip000)" style="stroke:#000000; stroke-linecap:round; stroke-linejoin:round; stroke-width:4; stroke-opacity:1; fill:none" points="1009.13,1423.18 1009.13,1404.28 "></polyline>
<polyline clip-path="url(#clip000)" style="stroke:#000000; stroke-linecap:round; stroke-linejoin:round; stroke-width:4; stroke-opacity:1; fill:none" points="1519.07,1423.18 1519.07,1404.28 "></polyline>
<polyline clip-path="url(#clip000)" style="stroke:#000000; stroke-linecap:round; stroke-linejoin:round; stroke-width:4; stroke-opacity:1; fill:none" points="2029.02,1423.18 2029.02,1404.28 "></polyline>
<path clip-path="url(#clip000)" d="M408.336 1451.02 L428.197 1451.02 L428.197 1454.96 L413.011 1454.96 L413.011 1465.14 L426.715 1465.14 L426.715 1469.08 L413.011 1469.08 L413.011 1485.58 L408.336 1485.58 L408.336 1451.02 Z" fill="#000000" fill-rule="nonzero" fill-opacity="1"></path><path clip-path="url(#clip000)" d="M443.775 1462.64 Q440.349 1462.64 438.359 1465.33 Q436.368 1467.99 436.368 1472.64 Q436.368 1477.29 438.335 1479.98 Q440.326 1482.64 443.775 1482.64 Q447.178 1482.64 449.169 1479.95 Q451.159 1477.27 451.159 1472.64 Q451.159 1468.03 449.169 1465.35 Q447.178 1462.64 443.775 1462.64 M443.775 1459.03 Q449.331 1459.03 452.502 1462.64 Q455.673 1466.25 455.673 1472.64 Q455.673 1479.01 452.502 1482.64 Q449.331 1486.25 443.775 1486.25 Q438.197 1486.25 435.025 1482.64 Q431.877 1479.01 431.877 1472.64 Q431.877 1466.25 435.025 1462.64 Q438.197 1459.03 443.775 1459.03 Z" fill="#000000" fill-rule="nonzero" fill-opacity="1"></path><path clip-path="url(#clip000)" d="M477.756 1463.64 Q477.039 1463.22 476.182 1463.03 Q475.349 1462.83 474.331 1462.83 Q470.719 1462.83 468.775 1465.19 Q466.854 1467.52 466.854 1471.92 L466.854 1485.58 L462.571 1485.58 L462.571 1459.65 L466.854 1459.65 L466.854 1463.68 Q468.196 1461.32 470.349 1460.19 Q472.502 1459.03 475.581 1459.03 Q476.02 1459.03 476.553 1459.1 Q477.085 1459.14 477.733 1459.26 L477.756 1463.64 Z" fill="#000000" fill-rule="nonzero" fill-opacity="1"></path><path clip-path="url(#clip000)" d="M479.747 1459.65 L484.006 1459.65 L489.331 1479.89 L494.631 1459.65 L499.655 1459.65 L504.979 1479.89 L510.279 1459.65 L514.539 1459.65 L507.756 1485.58 L502.733 1485.58 L497.155 1464.33 L491.553 1485.58 L486.53 1485.58 L479.747 1459.65 Z" fill="#000000" fill-rule="nonzero" fill-opacity="1"></path><path clip-path="url(#clip000)" d="M532.779 1472.55 Q527.617 1472.55 525.627 1473.73 Q523.636 1474.91 523.636 1477.76 Q523.636 1480.02 525.117 1481.37 Q526.622 1482.69 529.191 1482.69 Q532.733 1482.69 534.863 1480.19 Q537.015 1477.66 537.015 1473.5 L537.015 1472.55 L532.779 1472.55 M541.275 1470.79 L541.275 1485.58 L537.015 1485.58 L537.015 1481.64 Q535.557 1484.01 533.381 1485.14 Q531.205 1486.25 528.057 1486.25 Q524.076 1486.25 521.715 1484.03 Q519.377 1481.78 519.377 1478.03 Q519.377 1473.66 522.293 1471.44 Q525.233 1469.21 531.043 1469.21 L537.015 1469.21 L537.015 1468.8 Q537.015 1465.86 535.071 1464.26 Q533.15 1462.64 529.654 1462.64 Q527.432 1462.64 525.326 1463.17 Q523.219 1463.7 521.275 1464.77 L521.275 1460.83 Q523.613 1459.93 525.812 1459.49 Q528.011 1459.03 530.094 1459.03 Q535.719 1459.03 538.497 1461.95 Q541.275 1464.86 541.275 1470.79 Z" fill="#000000" fill-rule="nonzero" fill-opacity="1"></path><path clip-path="url(#clip000)" d="M565.071 1463.64 Q564.353 1463.22 563.497 1463.03 Q562.663 1462.83 561.645 1462.83 Q558.034 1462.83 556.089 1465.19 Q554.168 1467.52 554.168 1471.92 L554.168 1485.58 L549.886 1485.58 L549.886 1459.65 L554.168 1459.65 L554.168 1463.68 Q555.511 1461.32 557.663 1460.19 Q559.816 1459.03 562.895 1459.03 Q563.335 1459.03 563.867 1459.1 Q564.4 1459.14 565.048 1459.26 L565.071 1463.64 Z" fill="#000000" fill-rule="nonzero" fill-opacity="1"></path><path clip-path="url(#clip000)" d="M585.765 1463.59 L585.765 1449.56 L590.024 1449.56 L590.024 1485.58 L585.765 1485.58 L585.765 1481.69 Q584.423 1484.01 582.362 1485.14 Q580.325 1486.25 577.455 1486.25 Q572.756 1486.25 569.793 1482.5 Q566.853 1478.75 566.853 1472.64 Q566.853 1466.53 569.793 1462.78 Q572.756 1459.03 577.455 1459.03 Q580.325 1459.03 582.362 1460.16 Q584.423 1461.27 585.765 1463.59 M571.251 1472.64 Q571.251 1477.34 573.173 1480.02 Q575.117 1482.69 578.497 1482.69 Q581.876 1482.69 583.821 1480.02 Q585.765 1477.34 585.765 1472.64 Q585.765 1467.94 583.821 1465.28 Q581.876 1462.59 578.497 1462.59 Q575.117 1462.59 573.173 1465.28 Q571.251 1467.94 571.251 1472.64 Z" fill="#000000" fill-rule="nonzero" fill-opacity="1"></path><path clip-path="url(#clip000)" d="M925.991 1454.86 L925.991 1467.85 L931.871 1467.85 Q935.134 1467.85 936.917 1466.16 Q938.699 1464.47 938.699 1461.34 Q938.699 1458.24 936.917 1456.55 Q935.134 1454.86 931.871 1454.86 L925.991 1454.86 M921.315 1451.02 L931.871 1451.02 Q937.681 1451.02 940.644 1453.66 Q943.63 1456.27 943.63 1461.34 Q943.63 1466.46 940.644 1469.08 Q937.681 1471.69 931.871 1471.69 L925.991 1471.69 L925.991 1485.58 L921.315 1485.58 L921.315 1451.02 Z" fill="#000000" fill-rule="nonzero" fill-opacity="1"></path><path clip-path="url(#clip000)" d="M959.37 1472.55 Q954.208 1472.55 952.218 1473.73 Q950.227 1474.91 950.227 1477.76 Q950.227 1480.02 951.708 1481.37 Q953.213 1482.69 955.782 1482.69 Q959.324 1482.69 961.454 1480.19 Q963.606 1477.66 963.606 1473.5 L963.606 1472.55 L959.37 1472.55 M967.866 1470.79 L967.866 1485.58 L963.606 1485.58 L963.606 1481.64 Q962.148 1484.01 959.972 1485.14 Q957.796 1486.25 954.648 1486.25 Q950.667 1486.25 948.306 1484.03 Q945.968 1481.78 945.968 1478.03 Q945.968 1473.66 948.884 1471.44 Q951.824 1469.21 957.634 1469.21 L963.606 1469.21 L963.606 1468.8 Q963.606 1465.86 961.662 1464.26 Q959.741 1462.64 956.245 1462.64 Q954.023 1462.64 951.917 1463.17 Q949.81 1463.7 947.866 1464.77 L947.866 1460.83 Q950.204 1459.93 952.403 1459.49 Q954.602 1459.03 956.685 1459.03 Q962.31 1459.03 965.088 1461.95 Q967.866 1464.86 967.866 1470.79 Z" fill="#000000" fill-rule="nonzero" fill-opacity="1"></path><path clip-path="url(#clip000)" d="M976.199 1475.35 L976.199 1459.65 L980.458 1459.65 L980.458 1475.19 Q980.458 1478.87 981.893 1480.72 Q983.329 1482.55 986.199 1482.55 Q989.648 1482.55 991.639 1480.35 Q993.653 1478.15 993.653 1474.35 L993.653 1459.65 L997.912 1459.65 L997.912 1485.58 L993.653 1485.58 L993.653 1481.6 Q992.102 1483.96 990.041 1485.12 Q988.004 1486.25 985.296 1486.25 Q980.829 1486.25 978.514 1483.47 Q976.199 1480.7 976.199 1475.35 M986.917 1459.03 L986.917 1459.03 Z" fill="#000000" fill-rule="nonzero" fill-opacity="1"></path><path clip-path="url(#clip000)" d="M1023.21 1460.42 L1023.21 1464.45 Q1021.41 1463.52 1019.46 1463.06 Q1017.52 1462.59 1015.43 1462.59 Q1012.26 1462.59 1010.67 1463.57 Q1009.09 1464.54 1009.09 1466.48 Q1009.09 1467.96 1010.23 1468.82 Q1011.36 1469.65 1014.79 1470.42 L1016.25 1470.74 Q1020.78 1471.71 1022.68 1473.5 Q1024.6 1475.26 1024.6 1478.43 Q1024.6 1482.04 1021.73 1484.14 Q1018.88 1486.25 1013.88 1486.25 Q1011.8 1486.25 1009.53 1485.83 Q1007.29 1485.44 1004.79 1484.63 L1004.79 1480.23 Q1007.15 1481.46 1009.44 1482.08 Q1011.73 1482.69 1013.98 1482.69 Q1016.99 1482.69 1018.61 1481.67 Q1020.23 1480.63 1020.23 1478.75 Q1020.23 1477.02 1019.05 1476.09 Q1017.89 1475.16 1013.93 1474.31 L1012.45 1473.96 Q1008.49 1473.13 1006.73 1471.41 Q1004.97 1469.68 1004.97 1466.67 Q1004.97 1463.01 1007.56 1461.02 Q1010.16 1459.03 1014.93 1459.03 Q1017.29 1459.03 1019.37 1459.38 Q1021.45 1459.72 1023.21 1460.42 Z" fill="#000000" fill-rule="nonzero" fill-opacity="1"></path><path clip-path="url(#clip000)" d="M1053.56 1471.55 L1053.56 1473.64 L1033.98 1473.64 Q1034.25 1478.03 1036.62 1480.35 Q1039 1482.64 1043.24 1482.64 Q1045.69 1482.64 1047.98 1482.04 Q1050.3 1481.44 1052.56 1480.23 L1052.56 1484.26 Q1050.27 1485.23 1047.87 1485.74 Q1045.46 1486.25 1042.98 1486.25 Q1036.78 1486.25 1033.14 1482.64 Q1029.53 1479.03 1029.53 1472.87 Q1029.53 1466.51 1032.96 1462.78 Q1036.41 1459.03 1042.24 1459.03 Q1047.47 1459.03 1050.5 1462.41 Q1053.56 1465.77 1053.56 1471.55 M1049.3 1470.3 Q1049.25 1466.81 1047.33 1464.72 Q1045.43 1462.64 1042.29 1462.64 Q1038.72 1462.64 1036.57 1464.65 Q1034.44 1466.67 1034.12 1470.33 L1049.3 1470.3 Z" fill="#000000" fill-rule="nonzero" fill-opacity="1"></path><path clip-path="url(#clip000)" d="M1077.03 1481.64 L1084.67 1481.64 L1084.67 1455.28 L1076.36 1456.95 L1076.36 1452.69 L1084.62 1451.02 L1089.3 1451.02 L1089.3 1481.64 L1096.94 1481.64 L1096.94 1485.58 L1077.03 1485.58 L1077.03 1481.64 Z" fill="#000000" fill-rule="nonzero" fill-opacity="1"></path><path clip-path="url(#clip000)" d="M1443.77 1469.38 Q1445.28 1469.89 1446.69 1471.55 Q1448.13 1473.22 1449.56 1476.14 L1454.31 1485.58 L1449.28 1485.58 L1444.86 1476.71 Q1443.15 1473.24 1441.53 1472.11 Q1439.93 1470.97 1437.15 1470.97 L1432.06 1470.97 L1432.06 1485.58 L1427.38 1485.58 L1427.38 1451.02 L1437.94 1451.02 Q1443.87 1451.02 1446.78 1453.5 Q1449.7 1455.97 1449.7 1460.97 Q1449.7 1464.24 1448.17 1466.39 Q1446.67 1468.54 1443.77 1469.38 M1432.06 1454.86 L1432.06 1467.13 L1437.94 1467.13 Q1441.32 1467.13 1443.03 1465.58 Q1444.77 1464.01 1444.77 1460.97 Q1444.77 1457.94 1443.03 1456.41 Q1441.32 1454.86 1437.94 1454.86 L1432.06 1454.86 Z" fill="#000000" fill-rule="nonzero" fill-opacity="1"></path><path clip-path="url(#clip000)" d="M1480.19 1471.55 L1480.19 1473.64 L1460.6 1473.64 Q1460.88 1478.03 1463.24 1480.35 Q1465.63 1482.64 1469.86 1482.64 Q1472.32 1482.64 1474.61 1482.04 Q1476.92 1481.44 1479.19 1480.23 L1479.19 1484.26 Q1476.9 1485.23 1474.49 1485.74 Q1472.08 1486.25 1469.61 1486.25 Q1463.4 1486.25 1459.77 1482.64 Q1456.16 1479.03 1456.16 1472.87 Q1456.16 1466.51 1459.58 1462.78 Q1463.03 1459.03 1468.87 1459.03 Q1474.1 1459.03 1477.13 1462.41 Q1480.19 1465.77 1480.19 1471.55 M1475.93 1470.3 Q1475.88 1466.81 1473.96 1464.72 Q1472.06 1462.64 1468.91 1462.64 Q1465.35 1462.64 1463.19 1464.65 Q1461.07 1466.67 1460.74 1470.33 L1475.93 1470.3 Z" fill="#000000" fill-rule="nonzero" fill-opacity="1"></path><path clip-path="url(#clip000)" d="M1484.12 1459.65 L1488.63 1459.65 L1496.74 1481.41 L1504.84 1459.65 L1509.35 1459.65 L1499.63 1485.58 L1493.84 1485.58 L1484.12 1459.65 Z" fill="#000000" fill-rule="nonzero" fill-opacity="1"></path><path clip-path="url(#clip000)" d="M1537.41 1471.55 L1537.41 1473.64 L1517.82 1473.64 Q1518.1 1478.03 1520.46 1480.35 Q1522.85 1482.64 1527.08 1482.64 Q1529.54 1482.64 1531.83 1482.04 Q1534.14 1481.44 1536.41 1480.23 L1536.41 1484.26 Q1534.12 1485.23 1531.71 1485.74 Q1529.31 1486.25 1526.83 1486.25 Q1520.62 1486.25 1516.99 1482.64 Q1513.38 1479.03 1513.38 1472.87 Q1513.38 1466.51 1516.81 1462.78 Q1520.25 1459.03 1526.09 1459.03 Q1531.32 1459.03 1534.35 1462.41 Q1537.41 1465.77 1537.41 1471.55 M1533.15 1470.3 Q1533.1 1466.81 1531.18 1464.72 Q1529.28 1462.64 1526.13 1462.64 Q1522.57 1462.64 1520.42 1464.65 Q1518.29 1466.67 1517.96 1470.33 L1533.15 1470.3 Z" fill="#000000" fill-rule="nonzero" fill-opacity="1"></path><path clip-path="url(#clip000)" d="M1559.42 1463.64 Q1558.7 1463.22 1557.85 1463.03 Q1557.01 1462.83 1556 1462.83 Q1552.38 1462.83 1550.44 1465.19 Q1548.52 1467.52 1548.52 1471.92 L1548.52 1485.58 L1544.24 1485.58 L1544.24 1459.65 L1548.52 1459.65 L1548.52 1463.68 Q1549.86 1461.32 1552.01 1460.19 Q1554.17 1459.03 1557.25 1459.03 Q1557.68 1459.03 1558.22 1459.1 Q1558.75 1459.14 1559.4 1459.26 L1559.42 1463.64 Z" fill="#000000" fill-rule="nonzero" fill-opacity="1"></path><path clip-path="url(#clip000)" d="M1580.42 1460.42 L1580.42 1464.45 Q1578.61 1463.52 1576.67 1463.06 Q1574.72 1462.59 1572.64 1462.59 Q1569.47 1462.59 1567.87 1463.57 Q1566.3 1464.54 1566.3 1466.48 Q1566.3 1467.96 1567.43 1468.82 Q1568.56 1469.65 1571.99 1470.42 L1573.45 1470.74 Q1577.99 1471.71 1579.88 1473.5 Q1581.81 1475.26 1581.81 1478.43 Q1581.81 1482.04 1578.93 1484.14 Q1576.09 1486.25 1571.09 1486.25 Q1569 1486.25 1566.74 1485.83 Q1564.49 1485.44 1561.99 1484.63 L1561.99 1480.23 Q1564.35 1481.46 1566.64 1482.08 Q1568.93 1482.69 1571.18 1482.69 Q1574.19 1482.69 1575.81 1481.67 Q1577.43 1480.63 1577.43 1478.75 Q1577.43 1477.02 1576.25 1476.09 Q1575.09 1475.16 1571.13 1474.31 L1569.65 1473.96 Q1565.69 1473.13 1563.93 1471.41 Q1562.18 1469.68 1562.18 1466.67 Q1562.18 1463.01 1564.77 1461.02 Q1567.36 1459.03 1572.13 1459.03 Q1574.49 1459.03 1576.57 1459.38 Q1578.66 1459.72 1580.42 1460.42 Z" fill="#000000" fill-rule="nonzero" fill-opacity="1"></path><path clip-path="url(#clip000)" d="M1610.76 1471.55 L1610.76 1473.64 L1591.18 1473.64 Q1591.46 1478.03 1593.82 1480.35 Q1596.2 1482.64 1600.44 1482.64 Q1602.89 1482.64 1605.18 1482.04 Q1607.5 1481.44 1609.77 1480.23 L1609.77 1484.26 Q1607.48 1485.23 1605.07 1485.74 Q1602.66 1486.25 1600.18 1486.25 Q1593.98 1486.25 1590.35 1482.64 Q1586.74 1479.03 1586.74 1472.87 Q1586.74 1466.51 1590.16 1462.78 Q1593.61 1459.03 1599.44 1459.03 Q1604.68 1459.03 1607.71 1462.41 Q1610.76 1465.77 1610.76 1471.55 M1606.5 1470.3 Q1606.46 1466.81 1604.54 1464.72 Q1602.64 1462.64 1599.49 1462.64 Q1595.93 1462.64 1593.77 1464.65 Q1591.64 1466.67 1591.32 1470.33 L1606.5 1470.3 Z" fill="#000000" fill-rule="nonzero" fill-opacity="1"></path><path clip-path="url(#clip000)" d="M1946.07 1454.86 L1946.07 1467.85 L1951.95 1467.85 Q1955.21 1467.85 1957 1466.16 Q1958.78 1464.47 1958.78 1461.34 Q1958.78 1458.24 1957 1456.55 Q1955.21 1454.86 1951.95 1454.86 L1946.07 1454.86 M1941.39 1451.02 L1951.95 1451.02 Q1957.76 1451.02 1960.72 1453.66 Q1963.71 1456.27 1963.71 1461.34 Q1963.71 1466.46 1960.72 1469.08 Q1957.76 1471.69 1951.95 1471.69 L1946.07 1471.69 L1946.07 1485.58 L1941.39 1485.58 L1941.39 1451.02 Z" fill="#000000" fill-rule="nonzero" fill-opacity="1"></path><path clip-path="url(#clip000)" d="M1979.45 1472.55 Q1974.29 1472.55 1972.3 1473.73 Q1970.31 1474.91 1970.31 1477.76 Q1970.31 1480.02 1971.79 1481.37 Q1973.29 1482.69 1975.86 1482.69 Q1979.4 1482.69 1981.53 1480.19 Q1983.69 1477.66 1983.69 1473.5 L1983.69 1472.55 L1979.45 1472.55 M1987.94 1470.79 L1987.94 1485.58 L1983.69 1485.58 L1983.69 1481.64 Q1982.23 1484.01 1980.05 1485.14 Q1977.88 1486.25 1974.73 1486.25 Q1970.75 1486.25 1968.38 1484.03 Q1966.05 1481.78 1966.05 1478.03 Q1966.05 1473.66 1968.96 1471.44 Q1971.9 1469.21 1977.71 1469.21 L1983.69 1469.21 L1983.69 1468.8 Q1983.69 1465.86 1981.74 1464.26 Q1979.82 1462.64 1976.32 1462.64 Q1974.1 1462.64 1972 1463.17 Q1969.89 1463.7 1967.95 1464.77 L1967.95 1460.83 Q1970.28 1459.93 1972.48 1459.49 Q1974.68 1459.03 1976.76 1459.03 Q1982.39 1459.03 1985.17 1461.95 Q1987.94 1464.86 1987.94 1470.79 Z" fill="#000000" fill-rule="nonzero" fill-opacity="1"></path><path clip-path="url(#clip000)" d="M1996.28 1475.35 L1996.28 1459.65 L2000.54 1459.65 L2000.54 1475.19 Q2000.54 1478.87 2001.97 1480.72 Q2003.41 1482.55 2006.28 1482.55 Q2009.73 1482.55 2011.72 1480.35 Q2013.73 1478.15 2013.73 1474.35 L2013.73 1459.65 L2017.99 1459.65 L2017.99 1485.58 L2013.73 1485.58 L2013.73 1481.6 Q2012.18 1483.96 2010.12 1485.12 Q2008.08 1486.25 2005.38 1486.25 Q2000.91 1486.25 1998.59 1483.47 Q1996.28 1480.7 1996.28 1475.35 M2007 1459.03 L2007 1459.03 Z" fill="#000000" fill-rule="nonzero" fill-opacity="1"></path><path clip-path="url(#clip000)" d="M2043.29 1460.42 L2043.29 1464.45 Q2041.49 1463.52 2039.54 1463.06 Q2037.6 1462.59 2035.51 1462.59 Q2032.34 1462.59 2030.75 1463.57 Q2029.17 1464.54 2029.17 1466.48 Q2029.17 1467.96 2030.31 1468.82 Q2031.44 1469.65 2034.87 1470.42 L2036.32 1470.74 Q2040.86 1471.71 2042.76 1473.5 Q2044.68 1475.26 2044.68 1478.43 Q2044.68 1482.04 2041.81 1484.14 Q2038.96 1486.25 2033.96 1486.25 Q2031.88 1486.25 2029.61 1485.83 Q2027.37 1485.44 2024.87 1484.63 L2024.87 1480.23 Q2027.23 1481.46 2029.52 1482.08 Q2031.81 1482.69 2034.06 1482.69 Q2037.07 1482.69 2038.69 1481.67 Q2040.31 1480.63 2040.31 1478.75 Q2040.31 1477.02 2039.13 1476.09 Q2037.97 1475.16 2034.01 1474.31 L2032.53 1473.96 Q2028.57 1473.13 2026.81 1471.41 Q2025.05 1469.68 2025.05 1466.67 Q2025.05 1463.01 2027.64 1461.02 Q2030.24 1459.03 2035 1459.03 Q2037.37 1459.03 2039.45 1459.38 Q2041.53 1459.72 2043.29 1460.42 Z" fill="#000000" fill-rule="nonzero" fill-opacity="1"></path><path clip-path="url(#clip000)" d="M2073.64 1471.55 L2073.64 1473.64 L2054.06 1473.64 Q2054.33 1478.03 2056.69 1480.35 Q2059.08 1482.64 2063.31 1482.64 Q2065.77 1482.64 2068.06 1482.04 Q2070.38 1481.44 2072.64 1480.23 L2072.64 1484.26 Q2070.35 1485.23 2067.94 1485.74 Q2065.54 1486.25 2063.06 1486.25 Q2056.86 1486.25 2053.22 1482.64 Q2049.61 1479.03 2049.61 1472.87 Q2049.61 1466.51 2053.04 1462.78 Q2056.49 1459.03 2062.32 1459.03 Q2067.55 1459.03 2070.58 1462.41 Q2073.64 1465.77 2073.64 1471.55 M2069.38 1470.3 Q2069.33 1466.81 2067.41 1464.72 Q2065.51 1462.64 2062.37 1462.64 Q2058.8 1462.64 2056.65 1464.65 Q2054.52 1466.67 2054.19 1470.33 L2069.38 1470.3 Z" fill="#000000" fill-rule="nonzero" fill-opacity="1"></path><path clip-path="url(#clip000)" d="M2100.33 1481.64 L2116.65 1481.64 L2116.65 1485.58 L2094.7 1485.58 L2094.7 1481.64 Q2097.37 1478.89 2101.95 1474.26 Q2106.56 1469.61 2107.74 1468.27 Q2109.98 1465.74 2110.86 1464.01 Q2111.76 1462.25 2111.76 1460.56 Q2111.76 1457.8 2109.82 1456.07 Q2107.9 1454.33 2104.8 1454.33 Q2102.6 1454.33 2100.14 1455.09 Q2097.71 1455.86 2094.94 1457.41 L2094.94 1452.69 Q2097.76 1451.55 2100.21 1450.97 Q2102.67 1450.39 2104.7 1450.39 Q2110.07 1450.39 2113.27 1453.08 Q2116.46 1455.77 2116.46 1460.26 Q2116.46 1462.39 2115.65 1464.31 Q2114.87 1466.2 2112.76 1468.8 Q2112.18 1469.47 2109.08 1472.69 Q2105.98 1475.88 2100.33 1481.64 Z" fill="#000000" fill-rule="nonzero" fill-opacity="1"></path><path clip-path="url(#clip000)" d="M1195.18 1522.08 L1195.18 1528.35 Q1191.52 1526.6 1188.27 1525.74 Q1185.02 1524.88 1182 1524.88 Q1176.75 1524.88 1173.88 1526.92 Q1171.05 1528.96 1171.05 1532.71 Q1171.05 1535.87 1172.93 1537.49 Q1174.84 1539.08 1180.12 1540.07 L1184 1540.86 Q1191.2 1542.23 1194.6 1545.7 Q1198.04 1549.14 1198.04 1554.93 Q1198.04 1561.84 1193.39 1565.4 Q1188.78 1568.97 1179.83 1568.97 Q1176.46 1568.97 1172.64 1568.2 Q1168.85 1567.44 1164.78 1565.94 L1164.78 1559.32 Q1168.69 1561.52 1172.45 1562.63 Q1176.21 1563.75 1179.83 1563.75 Q1185.34 1563.75 1188.33 1561.58 Q1191.32 1559.42 1191.32 1555.41 Q1191.32 1551.91 1189.16 1549.93 Q1187.03 1547.96 1182.13 1546.97 L1178.21 1546.21 Q1171.02 1544.78 1167.8 1541.72 Q1164.59 1538.67 1164.59 1533.22 Q1164.59 1526.92 1169.01 1523.29 Q1173.47 1519.66 1181.27 1519.66 Q1184.61 1519.66 1188.08 1520.27 Q1191.55 1520.87 1195.18 1522.08 Z" fill="#000000" fill-rule="nonzero" fill-opacity="1"></path><path clip-path="url(#clip000)" d="M1213.6 1522.27 L1213.6 1532.4 L1225.67 1532.4 L1225.67 1536.95 L1213.6 1536.95 L1213.6 1556.3 Q1213.6 1560.66 1214.78 1561.9 Q1215.99 1563.14 1219.65 1563.14 L1225.67 1563.14 L1225.67 1568.04 L1219.65 1568.04 Q1212.87 1568.04 1210.29 1565.53 Q1207.72 1562.98 1207.72 1556.3 L1207.72 1536.95 L1203.42 1536.95 L1203.42 1532.4 L1207.72 1532.4 L1207.72 1522.27 L1213.6 1522.27 Z" fill="#000000" fill-rule="nonzero" fill-opacity="1"></path><path clip-path="url(#clip000)" d="M1249.57 1550.12 Q1242.47 1550.12 1239.74 1551.75 Q1237 1553.37 1237 1557.29 Q1237 1560.4 1239.04 1562.25 Q1241.1 1564.07 1244.64 1564.07 Q1249.51 1564.07 1252.44 1560.63 Q1255.4 1557.16 1255.4 1551.43 L1255.4 1550.12 L1249.57 1550.12 M1261.25 1547.71 L1261.25 1568.04 L1255.4 1568.04 L1255.4 1562.63 Q1253.39 1565.88 1250.4 1567.44 Q1247.41 1568.97 1243.08 1568.97 Q1237.6 1568.97 1234.36 1565.91 Q1231.14 1562.82 1231.14 1557.67 Q1231.14 1551.65 1235.15 1548.6 Q1239.19 1545.54 1247.18 1545.54 L1255.4 1545.54 L1255.4 1544.97 Q1255.4 1540.93 1252.72 1538.73 Q1250.08 1536.5 1245.27 1536.5 Q1242.22 1536.5 1239.32 1537.23 Q1236.43 1537.97 1233.75 1539.43 L1233.75 1534.02 Q1236.97 1532.78 1239.99 1532.17 Q1243.01 1531.54 1245.88 1531.54 Q1253.61 1531.54 1257.43 1535.55 Q1261.25 1539.56 1261.25 1547.71 Z" fill="#000000" fill-rule="nonzero" fill-opacity="1"></path><path clip-path="url(#clip000)" d="M1279.11 1522.27 L1279.11 1532.4 L1291.17 1532.4 L1291.17 1536.95 L1279.11 1536.95 L1279.11 1556.3 Q1279.11 1560.66 1280.29 1561.9 Q1281.49 1563.14 1285.16 1563.14 L1291.17 1563.14 L1291.17 1568.04 L1285.16 1568.04 Q1278.38 1568.04 1275.8 1565.53 Q1273.22 1562.98 1273.22 1556.3 L1273.22 1536.95 L1268.92 1536.95 L1268.92 1532.4 L1273.22 1532.4 L1273.22 1522.27 L1279.11 1522.27 Z" fill="#000000" fill-rule="nonzero" fill-opacity="1"></path><path clip-path="url(#clip000)" d="M1329.36 1548.76 L1329.36 1551.62 L1302.44 1551.62 Q1302.82 1557.67 1306.07 1560.85 Q1309.34 1564 1315.17 1564 Q1318.54 1564 1321.69 1563.17 Q1324.88 1562.35 1328 1560.69 L1328 1566.23 Q1324.85 1567.57 1321.54 1568.27 Q1318.22 1568.97 1314.82 1568.97 Q1306.29 1568.97 1301.29 1564 Q1296.33 1559.04 1296.33 1550.57 Q1296.33 1541.82 1301.04 1536.69 Q1305.78 1531.54 1313.8 1531.54 Q1320.99 1531.54 1325.16 1536.18 Q1329.36 1540.8 1329.36 1548.76 M1323.51 1547.04 Q1323.44 1542.23 1320.8 1539.37 Q1318.19 1536.5 1313.86 1536.5 Q1308.96 1536.5 1306 1539.27 Q1303.07 1542.04 1302.63 1547.07 L1323.51 1547.04 Z" fill="#000000" fill-rule="nonzero" fill-opacity="1"></path><path clip-path="url(#clip000)" d="M1361.7 1533.45 L1361.7 1538.98 Q1359.22 1537.71 1356.55 1537.07 Q1353.87 1536.44 1351.01 1536.44 Q1346.65 1536.44 1344.45 1537.77 Q1342.29 1539.11 1342.29 1541.79 Q1342.29 1543.82 1343.85 1545 Q1345.41 1546.15 1350.12 1547.2 L1352.12 1547.64 Q1358.36 1548.98 1360.97 1551.43 Q1363.61 1553.85 1363.61 1558.21 Q1363.61 1563.17 1359.67 1566.07 Q1355.75 1568.97 1348.88 1568.97 Q1346.01 1568.97 1342.89 1568.39 Q1339.8 1567.85 1336.37 1566.74 L1336.37 1560.69 Q1339.61 1562.38 1342.76 1563.24 Q1345.92 1564.07 1349 1564.07 Q1353.14 1564.07 1355.37 1562.66 Q1357.6 1561.23 1357.6 1558.65 Q1357.6 1556.27 1355.97 1554.99 Q1354.38 1553.72 1348.94 1552.54 L1346.9 1552.07 Q1341.46 1550.92 1339.04 1548.56 Q1336.62 1546.18 1336.62 1542.04 Q1336.62 1537.01 1340.19 1534.27 Q1343.75 1531.54 1350.31 1531.54 Q1353.55 1531.54 1356.42 1532.01 Q1359.28 1532.49 1361.7 1533.45 Z" fill="#000000" fill-rule="nonzero" fill-opacity="1"></path><polyline clip-path="url(#clip000)" style="stroke:#000000; stroke-linecap:round; stroke-linejoin:round; stroke-width:4; stroke-opacity:1; fill:none" points="175.445,1423.18 175.445,123.472 "></polyline>
<polyline clip-path="url(#clip000)" style="stroke:#000000; stroke-linecap:round; stroke-linejoin:round; stroke-width:4; stroke-opacity:1; fill:none" points="175.445,1423.18 194.343,1423.18 "></polyline>
<polyline clip-path="url(#clip000)" style="stroke:#000000; stroke-linecap:round; stroke-linejoin:round; stroke-width:4; stroke-opacity:1; fill:none" points="175.445,1237.51 194.343,1237.51 "></polyline>
<polyline clip-path="url(#clip000)" style="stroke:#000000; stroke-linecap:round; stroke-linejoin:round; stroke-width:4; stroke-opacity:1; fill:none" points="175.445,1051.83 194.343,1051.83 "></polyline>
<polyline clip-path="url(#clip000)" style="stroke:#000000; stroke-linecap:round; stroke-linejoin:round; stroke-width:4; stroke-opacity:1; fill:none" points="175.445,866.162 194.343,866.162 "></polyline>
<polyline clip-path="url(#clip000)" style="stroke:#000000; stroke-linecap:round; stroke-linejoin:round; stroke-width:4; stroke-opacity:1; fill:none" points="175.445,680.49 194.343,680.49 "></polyline>
<polyline clip-path="url(#clip000)" style="stroke:#000000; stroke-linecap:round; stroke-linejoin:round; stroke-width:4; stroke-opacity:1; fill:none" points="175.445,494.817 194.343,494.817 "></polyline>
<polyline clip-path="url(#clip000)" style="stroke:#000000; stroke-linecap:round; stroke-linejoin:round; stroke-width:4; stroke-opacity:1; fill:none" points="175.445,309.145 194.343,309.145 "></polyline>
<polyline clip-path="url(#clip000)" style="stroke:#000000; stroke-linecap:round; stroke-linejoin:round; stroke-width:4; stroke-opacity:1; fill:none" points="175.445,123.472 194.343,123.472 "></polyline>
<path clip-path="url(#clip000)" d="M127.501 1408.98 Q123.89 1408.98 122.061 1412.54 Q120.255 1416.08 120.255 1423.21 Q120.255 1430.32 122.061 1433.89 Q123.89 1437.43 127.501 1437.43 Q131.135 1437.43 132.941 1433.89 Q134.769 1430.32 134.769 1423.21 Q134.769 1416.08 132.941 1412.54 Q131.135 1408.98 127.501 1408.98 M127.501 1405.27 Q133.311 1405.27 136.367 1409.88 Q139.445 1414.46 139.445 1423.21 Q139.445 1431.94 136.367 1436.55 Q133.311 1441.13 127.501 1441.13 Q121.691 1441.13 118.612 1436.55 Q115.556 1431.94 115.556 1423.21 Q115.556 1414.46 118.612 1409.88 Q121.691 1405.27 127.501 1405.27 Z" fill="#000000" fill-rule="nonzero" fill-opacity="1"></path><path clip-path="url(#clip000)" d="M119.538 1250.85 L127.177 1250.85 L127.177 1224.49 L118.867 1226.15 L118.867 1221.89 L127.13 1220.23 L131.806 1220.23 L131.806 1250.85 L139.445 1250.85 L139.445 1254.79 L119.538 1254.79 L119.538 1250.85 Z" fill="#000000" fill-rule="nonzero" fill-opacity="1"></path><path clip-path="url(#clip000)" d="M123.126 1065.18 L139.445 1065.18 L139.445 1069.11 L117.501 1069.11 L117.501 1065.18 Q120.163 1062.43 124.746 1057.8 Q129.353 1053.14 130.533 1051.8 Q132.779 1049.28 133.658 1047.54 Q134.561 1045.78 134.561 1044.09 Q134.561 1041.34 132.617 1039.6 Q130.695 1037.86 127.593 1037.86 Q125.394 1037.86 122.941 1038.63 Q120.51 1039.39 117.732 1040.94 L117.732 1036.22 Q120.556 1035.09 123.01 1034.51 Q125.464 1033.93 127.501 1033.93 Q132.871 1033.93 136.066 1036.61 Q139.26 1039.3 139.26 1043.79 Q139.26 1045.92 138.45 1047.84 Q137.663 1049.74 135.556 1052.33 Q134.978 1053 131.876 1056.22 Q128.774 1059.42 123.126 1065.18 Z" fill="#000000" fill-rule="nonzero" fill-opacity="1"></path><path clip-path="url(#clip000)" d="M132.316 864.808 Q135.672 865.526 137.547 867.794 Q139.445 870.063 139.445 873.396 Q139.445 878.512 135.927 881.313 Q132.408 884.114 125.927 884.114 Q123.751 884.114 121.436 883.674 Q119.144 883.257 116.691 882.401 L116.691 877.887 Q118.635 879.021 120.95 879.6 Q123.265 880.178 125.788 880.178 Q130.186 880.178 132.478 878.442 Q134.792 876.706 134.792 873.396 Q134.792 870.34 132.64 868.628 Q130.51 866.891 126.691 866.891 L122.663 866.891 L122.663 863.049 L126.876 863.049 Q130.325 863.049 132.154 861.683 Q133.982 860.294 133.982 857.702 Q133.982 855.04 132.084 853.628 Q130.209 852.192 126.691 852.192 Q124.769 852.192 122.57 852.609 Q120.371 853.026 117.732 853.905 L117.732 849.739 Q120.394 848.998 122.709 848.628 Q125.047 848.257 127.107 848.257 Q132.431 848.257 135.533 850.688 Q138.635 853.095 138.635 857.216 Q138.635 860.086 136.992 862.077 Q135.348 864.044 132.316 864.808 Z" fill="#000000" fill-rule="nonzero" fill-opacity="1"></path><path clip-path="url(#clip000)" d="M129.862 667.284 L118.056 685.733 L129.862 685.733 L129.862 667.284 M128.635 663.21 L134.515 663.21 L134.515 685.733 L139.445 685.733 L139.445 689.622 L134.515 689.622 L134.515 697.77 L129.862 697.77 L129.862 689.622 L114.26 689.622 L114.26 685.108 L128.635 663.21 Z" fill="#000000" fill-rule="nonzero" fill-opacity="1"></path><path clip-path="url(#clip000)" d="M118.543 477.537 L136.899 477.537 L136.899 481.472 L122.825 481.472 L122.825 489.945 Q123.843 489.597 124.862 489.435 Q125.88 489.25 126.899 489.25 Q132.686 489.25 136.066 492.421 Q139.445 495.593 139.445 501.009 Q139.445 506.588 135.973 509.69 Q132.501 512.768 126.181 512.768 Q124.005 512.768 121.737 512.398 Q119.492 512.028 117.084 511.287 L117.084 506.588 Q119.168 507.722 121.39 508.278 Q123.612 508.833 126.089 508.833 Q130.093 508.833 132.431 506.727 Q134.769 504.62 134.769 501.009 Q134.769 497.398 132.431 495.292 Q130.093 493.185 126.089 493.185 Q124.214 493.185 122.339 493.602 Q120.487 494.019 118.543 494.898 L118.543 477.537 Z" fill="#000000" fill-rule="nonzero" fill-opacity="1"></path><path clip-path="url(#clip000)" d="M127.917 307.281 Q124.769 307.281 122.918 309.434 Q121.089 311.587 121.089 315.337 Q121.089 319.064 122.918 321.239 Q124.769 323.392 127.917 323.392 Q131.066 323.392 132.894 321.239 Q134.746 319.064 134.746 315.337 Q134.746 311.587 132.894 309.434 Q131.066 307.281 127.917 307.281 M137.2 292.629 L137.2 296.888 Q135.441 296.054 133.635 295.615 Q131.853 295.175 130.093 295.175 Q125.464 295.175 123.01 298.3 Q120.58 301.425 120.232 307.744 Q121.598 305.73 123.658 304.666 Q125.718 303.578 128.195 303.578 Q133.404 303.578 136.413 306.749 Q139.445 309.897 139.445 315.337 Q139.445 320.661 136.297 323.878 Q133.149 327.096 127.917 327.096 Q121.922 327.096 118.751 322.513 Q115.58 317.906 115.58 309.179 Q115.58 300.985 119.468 296.124 Q123.357 291.24 129.908 291.24 Q131.667 291.24 133.45 291.587 Q135.255 291.934 137.2 292.629 Z" fill="#000000" fill-rule="nonzero" fill-opacity="1"></path><path clip-path="url(#clip000)" d="M117.223 106.192 L139.445 106.192 L139.445 108.183 L126.899 140.752 L122.015 140.752 L133.82 110.127 L117.223 110.127 L117.223 106.192 Z" fill="#000000" fill-rule="nonzero" fill-opacity="1"></path><path clip-path="url(#clip000)" d="M16.4842 1047.59 L16.4842 1038.01 L48.8219 1025.89 L16.4842 1013.7 L16.4842 1004.11 L64.0042 1004.11 L64.0042 1010.38 L22.277 1010.38 L54.8694 1022.64 L54.8694 1029.1 L22.277 1041.35 L64.0042 1041.35 L64.0042 1047.59 L16.4842 1047.59 Z" fill="#000000" fill-rule="nonzero" fill-opacity="1"></path><path clip-path="url(#clip000)" d="M44.7161 961.114 L47.5806 961.114 L47.5806 988.041 Q53.6281 987.659 56.8109 984.413 Q59.9619 981.134 59.9619 975.31 Q59.9619 971.936 59.1344 968.785 Q58.3069 965.602 56.6518 962.483 L62.1899 962.483 Q63.5267 965.634 64.227 968.944 Q64.9272 972.254 64.9272 975.66 Q64.9272 984.19 59.9619 989.187 Q54.9967 994.152 46.5303 994.152 Q37.7774 994.152 32.6531 989.442 Q27.4968 984.699 27.4968 976.678 Q27.4968 969.485 32.1438 965.316 Q36.7589 961.114 44.7161 961.114 M42.9973 966.971 Q38.1912 967.034 35.3266 969.676 Q32.4621 972.286 32.4621 976.615 Q32.4621 981.516 35.2312 984.476 Q38.0002 987.405 43.0292 987.85 L42.9973 966.971 Z" fill="#000000" fill-rule="nonzero" fill-opacity="1"></path><path clip-path="url(#clip000)" d="M46.0847 935.301 Q46.0847 942.399 47.7079 945.136 Q49.3312 947.874 53.2461 947.874 Q56.3653 947.874 58.2114 945.837 Q60.0256 943.768 60.0256 940.235 Q60.0256 935.365 56.5881 932.437 Q53.1188 929.477 47.3897 929.477 L46.0847 929.477 L46.0847 935.301 M43.6657 923.62 L64.0042 923.62 L64.0042 929.477 L58.5933 929.477 Q61.8398 931.482 63.3994 934.474 Q64.9272 937.466 64.9272 941.794 Q64.9272 947.269 61.8716 950.515 Q58.7843 953.73 53.6281 953.73 Q47.6125 953.73 44.5569 949.72 Q41.5014 945.677 41.5014 937.689 L41.5014 929.477 L40.9285 929.477 Q36.8862 929.477 34.6901 932.15 Q32.4621 934.792 32.4621 939.598 Q32.4621 942.654 33.1941 945.55 Q33.9262 948.447 35.3903 951.12 L29.9795 951.12 Q28.7381 947.905 28.1334 944.882 Q27.4968 941.858 27.4968 938.993 Q27.4968 931.259 31.5072 927.44 Q35.5176 923.62 43.6657 923.62 Z" fill="#000000" fill-rule="nonzero" fill-opacity="1"></path><path clip-path="url(#clip000)" d="M42.4881 881.925 L64.0042 881.925 L64.0042 887.781 L42.679 887.781 Q37.6183 887.781 35.1038 889.755 Q32.5894 891.728 32.5894 895.675 Q32.5894 900.417 35.6131 903.155 Q38.6368 905.892 43.8567 905.892 L64.0042 905.892 L64.0042 911.78 L28.3562 911.78 L28.3562 905.892 L33.8944 905.892 Q30.6797 903.791 29.0883 900.958 Q27.4968 898.094 27.4968 894.37 Q27.4968 888.227 31.3163 885.076 Q35.1038 881.925 42.4881 881.925 Z" fill="#000000" fill-rule="nonzero" fill-opacity="1"></path><path clip-path="url(#clip000)" d="M21.7677 842.84 L58.7206 842.84 L58.7206 835.073 Q58.7206 825.238 54.2646 820.687 Q49.8086 816.104 40.1964 816.104 Q30.6479 816.104 26.2237 820.687 Q21.7677 825.238 21.7677 835.073 L21.7677 842.84 M16.4842 849.269 L16.4842 836.06 Q16.4842 822.246 22.2451 815.785 Q27.9743 809.324 40.1964 809.324 Q52.4822 809.324 58.2432 815.817 Q64.0042 822.31 64.0042 836.06 L64.0042 849.269 L16.4842 849.269 Z" fill="#000000" fill-rule="nonzero" fill-opacity="1"></path><path clip-path="url(#clip000)" d="M28.3562 802.736 L28.3562 796.879 L56.1743 789.559 L28.3562 782.27 L28.3562 775.363 L56.1743 768.042 L28.3562 760.754 L28.3562 754.897 L64.0042 764.223 L64.0042 771.13 L34.7856 778.8 L64.0042 786.503 L64.0042 793.41 L28.3562 802.736 Z" fill="#000000" fill-rule="nonzero" fill-opacity="1"></path><path clip-path="url(#clip000)" d="M44.7161 715.525 L47.5806 715.525 L47.5806 742.452 Q53.6281 742.07 56.8109 738.824 Q59.9619 735.546 59.9619 729.721 Q59.9619 726.347 59.1344 723.196 Q58.3069 720.013 56.6518 716.894 L62.1899 716.894 Q63.5267 720.045 64.227 723.355 Q64.9272 726.665 64.9272 730.071 Q64.9272 738.601 59.9619 743.598 Q54.9967 748.563 46.5303 748.563 Q37.7774 748.563 32.6531 743.853 Q27.4968 739.11 27.4968 731.09 Q27.4968 723.896 32.1438 719.727 Q36.7589 715.525 44.7161 715.525 M42.9973 721.382 Q38.1912 721.445 35.3266 724.087 Q32.4621 726.697 32.4621 731.026 Q32.4621 735.927 35.2312 738.888 Q38.0002 741.816 43.0292 742.261 L42.9973 721.382 Z" fill="#000000" fill-rule="nonzero" fill-opacity="1"></path><path clip-path="url(#clip000)" d="M14.479 705.913 L14.479 700.057 L64.0042 700.057 L64.0042 705.913 L14.479 705.913 Z" fill="#000000" fill-rule="nonzero" fill-opacity="1"></path><path clip-path="url(#clip000)" d="M14.479 687.803 L14.479 681.946 L64.0042 681.946 L64.0042 687.803 L14.479 687.803 Z" fill="#000000" fill-rule="nonzero" fill-opacity="1"></path><path clip-path="url(#clip000)" d="M16.4842 655.306 L16.4842 615.106 L21.895 615.106 L21.895 631.975 L64.0042 631.975 L64.0042 638.437 L21.895 638.437 L21.895 655.306 L16.4842 655.306 Z" fill="#000000" fill-rule="nonzero" fill-opacity="1"></path><path clip-path="url(#clip000)" d="M28.3562 611.16 L28.3562 605.303 L64.0042 605.303 L64.0042 611.16 L28.3562 611.16 M14.479 611.16 L14.479 605.303 L21.895 605.303 L21.895 611.16 L14.479 611.16 Z" fill="#000000" fill-rule="nonzero" fill-opacity="1"></path><path clip-path="url(#clip000)" d="M35.1993 565.295 Q31.2526 563.099 29.3747 560.043 Q27.4968 556.987 27.4968 552.85 Q27.4968 547.28 31.4117 544.256 Q35.2948 541.232 42.4881 541.232 L64.0042 541.232 L64.0042 547.121 L42.679 547.121 Q37.5546 547.121 35.072 548.935 Q32.5894 550.749 32.5894 554.473 Q32.5894 559.024 35.6131 561.666 Q38.6368 564.308 43.8567 564.308 L64.0042 564.308 L64.0042 570.196 L42.679 570.196 Q37.5228 570.196 35.072 572.011 Q32.5894 573.825 32.5894 577.612 Q32.5894 582.1 35.6449 584.742 Q38.6686 587.384 43.8567 587.384 L64.0042 587.384 L64.0042 593.272 L28.3562 593.272 L28.3562 587.384 L33.8944 587.384 Q30.616 585.378 29.0564 582.578 Q27.4968 579.777 27.4968 575.925 Q27.4968 572.042 29.4702 569.337 Q31.4436 566.6 35.1993 565.295 Z" fill="#000000" fill-rule="nonzero" fill-opacity="1"></path><path clip-path="url(#clip000)" d="M44.7161 499.06 L47.5806 499.06 L47.5806 525.986 Q53.6281 525.605 56.8109 522.358 Q59.9619 519.08 59.9619 513.255 Q59.9619 509.881 59.1344 506.73 Q58.3069 503.547 56.6518 500.428 L62.1899 500.428 Q63.5267 503.579 64.227 506.889 Q64.9272 510.2 64.9272 513.605 Q64.9272 522.135 59.9619 527.132 Q54.9967 532.098 46.5303 532.098 Q37.7774 532.098 32.6531 527.387 Q27.4968 522.644 27.4968 514.624 Q27.4968 507.43 32.1438 503.261 Q36.7589 499.06 44.7161 499.06 M42.9973 504.916 Q38.1912 504.98 35.3266 507.621 Q32.4621 510.231 32.4621 514.56 Q32.4621 519.462 35.2312 522.422 Q38.0002 525.35 43.0292 525.795 L42.9973 504.916 Z" fill="#000000" fill-rule="nonzero" fill-opacity="1"></path><path clip-path="url(#clip000)" d="M393.095 12.096 L405.289 12.096 L420.723 53.2532 L436.238 12.096 L448.431 12.096 L448.431 72.576 L440.45 72.576 L440.45 19.4686 L424.854 60.9499 L416.631 60.9499 L401.035 19.4686 L401.035 72.576 L393.095 72.576 L393.095 12.096 Z" fill="#000000" fill-rule="nonzero" fill-opacity="1"></path><path clip-path="url(#clip000)" d="M503.158 48.0275 L503.158 51.6733 L468.888 51.6733 Q469.374 59.3701 473.506 63.421 Q477.678 67.4314 485.091 67.4314 Q489.385 67.4314 493.396 66.3781 Q497.447 65.3249 501.417 63.2184 L501.417 70.267 Q497.406 71.9684 493.193 72.8596 Q488.98 73.7508 484.646 73.7508 Q473.789 73.7508 467.429 67.4314 Q461.11 61.1119 461.11 50.3365 Q461.11 39.1965 467.105 32.6746 Q473.141 26.1121 483.35 26.1121 Q492.505 26.1121 497.811 32.0264 Q503.158 37.9003 503.158 48.0275 M495.705 45.84 Q495.624 39.7232 492.262 36.0774 Q488.94 32.4315 483.431 32.4315 Q477.192 32.4315 473.425 35.9558 Q469.698 39.4801 469.131 45.8805 L495.705 45.84 Z" fill="#000000" fill-rule="nonzero" fill-opacity="1"></path><path clip-path="url(#clip000)" d="M536.011 49.7694 Q526.978 49.7694 523.494 51.8354 Q520.01 53.9013 520.01 58.8839 Q520.01 62.8538 522.603 65.2034 Q525.236 67.5124 529.732 67.5124 Q535.93 67.5124 539.657 63.1374 Q543.424 58.7219 543.424 51.4303 L543.424 49.7694 L536.011 49.7694 M550.878 46.6907 L550.878 72.576 L543.424 72.576 L543.424 65.6895 Q540.872 69.8214 537.065 71.8063 Q533.257 73.7508 527.747 73.7508 Q520.78 73.7508 516.648 69.8619 Q512.557 65.9325 512.557 59.3701 Q512.557 51.7138 517.661 47.825 Q522.805 43.9361 532.973 43.9361 L543.424 43.9361 L543.424 43.2069 Q543.424 38.0623 540.022 35.2672 Q536.659 32.4315 530.543 32.4315 Q526.654 32.4315 522.967 33.3632 Q519.281 34.295 515.878 36.1584 L515.878 29.2718 Q519.97 27.692 523.818 26.9223 Q527.666 26.1121 531.312 26.1121 Q541.156 26.1121 546.017 31.2163 Q550.878 36.3204 550.878 46.6907 Z" fill="#000000" fill-rule="nonzero" fill-opacity="1"></path><path clip-path="url(#clip000)" d="M603.945 45.1919 L603.945 72.576 L596.491 72.576 L596.491 45.4349 Q596.491 38.994 593.98 35.7938 Q591.468 32.5936 586.445 32.5936 Q580.409 32.5936 576.925 36.4419 Q573.442 40.2903 573.442 46.9338 L573.442 72.576 L565.947 72.576 L565.947 27.2059 L573.442 27.2059 L573.442 34.2544 Q576.115 30.163 579.721 28.1376 Q583.366 26.1121 588.106 26.1121 Q595.924 26.1121 599.935 30.9732 Q603.945 35.7938 603.945 45.1919 Z" fill="#000000" fill-rule="nonzero" fill-opacity="1"></path><path clip-path="url(#clip000)" d="M653.69 18.8205 L653.69 65.8515 L663.574 65.8515 Q676.092 65.8515 681.884 60.1802 Q687.718 54.509 687.718 42.2752 Q687.718 30.1225 681.884 24.4918 Q676.092 18.8205 663.574 18.8205 L653.69 18.8205 M645.507 12.096 L662.318 12.096 Q679.899 12.096 688.123 19.4281 Q696.346 26.7198 696.346 42.2752 Q696.346 57.9117 688.082 65.2439 Q679.818 72.576 662.318 72.576 L645.507 72.576 L645.507 12.096 Z" fill="#000000" fill-rule="nonzero" fill-opacity="1"></path><path clip-path="url(#clip000)" d="M704.731 27.2059 L712.185 27.2059 L721.502 62.6108 L730.779 27.2059 L739.569 27.2059 L748.886 62.6108 L758.163 27.2059 L765.617 27.2059 L753.747 72.576 L744.957 72.576 L735.194 35.3887 L725.391 72.576 L716.601 72.576 L704.731 27.2059 Z" fill="#000000" fill-rule="nonzero" fill-opacity="1"></path><path clip-path="url(#clip000)" d="M815.726 48.0275 L815.726 51.6733 L781.456 51.6733 Q781.942 59.3701 786.074 63.421 Q790.246 67.4314 797.659 67.4314 Q801.953 67.4314 805.964 66.3781 Q810.014 65.3249 813.984 63.2184 L813.984 70.267 Q809.974 71.9684 805.761 72.8596 Q801.548 73.7508 797.214 73.7508 Q786.357 73.7508 779.997 67.4314 Q773.678 61.1119 773.678 50.3365 Q773.678 39.1965 779.673 32.6746 Q785.709 26.1121 795.917 26.1121 Q805.072 26.1121 810.379 32.0264 Q815.726 37.9003 815.726 48.0275 M808.273 45.84 Q808.192 39.7232 804.829 36.0774 Q801.508 32.4315 795.998 32.4315 Q789.76 32.4315 785.993 35.9558 Q782.266 39.4801 781.699 45.8805 L808.273 45.84 Z" fill="#000000" fill-rule="nonzero" fill-opacity="1"></path><path clip-path="url(#clip000)" d="M827.96 9.54393 L835.414 9.54393 L835.414 72.576 L827.96 72.576 L827.96 9.54393 Z" fill="#000000" fill-rule="nonzero" fill-opacity="1"></path><path clip-path="url(#clip000)" d="M851.01 9.54393 L858.463 9.54393 L858.463 72.576 L851.01 72.576 L851.01 9.54393 Z" fill="#000000" fill-rule="nonzero" fill-opacity="1"></path><path clip-path="url(#clip000)" d="M892.369 12.096 L943.532 12.096 L943.532 18.9825 L922.062 18.9825 L922.062 72.576 L913.839 72.576 L913.839 18.9825 L892.369 18.9825 L892.369 12.096 Z" fill="#000000" fill-rule="nonzero" fill-opacity="1"></path><path clip-path="url(#clip000)" d="M948.555 27.2059 L956.009 27.2059 L956.009 72.576 L948.555 72.576 L948.555 27.2059 M948.555 9.54393 L956.009 9.54393 L956.009 18.9825 L948.555 18.9825 L948.555 9.54393 Z" fill="#000000" fill-rule="nonzero" fill-opacity="1"></path><path clip-path="url(#clip000)" d="M1006.93 35.9153 Q1009.72 30.8922 1013.61 28.5022 Q1017.5 26.1121 1022.77 26.1121 Q1029.86 26.1121 1033.71 31.0947 Q1037.55 36.0368 1037.55 45.1919 L1037.55 72.576 L1030.06 72.576 L1030.06 45.4349 Q1030.06 38.913 1027.75 35.7533 Q1025.44 32.5936 1020.7 32.5936 Q1014.91 32.5936 1011.55 36.4419 Q1008.18 40.2903 1008.18 46.9338 L1008.18 72.576 L1000.69 72.576 L1000.69 45.4349 Q1000.69 38.8725 998.381 35.7533 Q996.072 32.5936 991.252 32.5936 Q985.54 32.5936 982.178 36.4824 Q978.816 40.3308 978.816 46.9338 L978.816 72.576 L971.321 72.576 L971.321 27.2059 L978.816 27.2059 L978.816 34.2544 Q981.368 30.082 984.932 28.0971 Q988.497 26.1121 993.399 26.1121 Q998.341 26.1121 1001.78 28.6237 Q1005.27 31.1352 1006.93 35.9153 Z" fill="#000000" fill-rule="nonzero" fill-opacity="1"></path><path clip-path="url(#clip000)" d="M1091.23 48.0275 L1091.23 51.6733 L1056.96 51.6733 Q1057.44 59.3701 1061.58 63.421 Q1065.75 67.4314 1073.16 67.4314 Q1077.46 67.4314 1081.47 66.3781 Q1085.52 65.3249 1089.49 63.2184 L1089.49 70.267 Q1085.48 71.9684 1081.26 72.8596 Q1077.05 73.7508 1072.72 73.7508 Q1061.86 73.7508 1055.5 67.4314 Q1049.18 61.1119 1049.18 50.3365 Q1049.18 39.1965 1055.18 32.6746 Q1061.21 26.1121 1071.42 26.1121 Q1080.57 26.1121 1085.88 32.0264 Q1091.23 37.9003 1091.23 48.0275 M1083.77 45.84 Q1083.69 39.7232 1080.33 36.0774 Q1077.01 32.4315 1071.5 32.4315 Q1065.26 32.4315 1061.49 35.9558 Q1057.77 39.4801 1057.2 45.8805 L1083.77 45.84 Z" fill="#000000" fill-rule="nonzero" fill-opacity="1"></path><path clip-path="url(#clip000)" d="M1130.16 12.096 L1138.34 12.096 L1138.34 36.8875 L1168.07 36.8875 L1168.07 12.096 L1176.26 12.096 L1176.26 72.576 L1168.07 72.576 L1168.07 43.7741 L1138.34 43.7741 L1138.34 72.576 L1130.16 72.576 L1130.16 12.096 Z" fill="#000000" fill-rule="nonzero" fill-opacity="1"></path><path clip-path="url(#clip000)" d="M1192.22 27.2059 L1199.67 27.2059 L1199.67 72.576 L1192.22 72.576 L1192.22 27.2059 M1192.22 9.54393 L1199.67 9.54393 L1199.67 18.9825 L1192.22 18.9825 L1192.22 9.54393 Z" fill="#000000" fill-rule="nonzero" fill-opacity="1"></path><path clip-path="url(#clip000)" d="M1244.19 28.5427 L1244.19 35.5912 Q1241.03 33.9709 1237.63 33.1607 Q1234.23 32.3505 1230.58 32.3505 Q1225.03 32.3505 1222.23 34.0519 Q1219.48 35.7533 1219.48 39.156 Q1219.48 41.7486 1221.46 43.2475 Q1223.45 44.7058 1229.45 46.0426 L1232 46.6097 Q1239.94 48.3111 1243.26 51.4303 Q1246.62 54.509 1246.62 60.0587 Q1246.62 66.3781 1241.6 70.0644 Q1236.62 73.7508 1227.87 73.7508 Q1224.22 73.7508 1220.25 73.0216 Q1216.32 72.3329 1211.95 70.9151 L1211.95 63.2184 Q1216.08 65.3654 1220.09 66.4591 Q1224.1 67.5124 1228.03 67.5124 Q1233.29 67.5124 1236.13 65.73 Q1238.96 63.9071 1238.96 60.6258 Q1238.96 57.5877 1236.9 55.9673 Q1234.87 54.3469 1227.95 52.8481 L1225.35 52.2405 Q1218.43 50.7821 1215.35 47.7845 Q1212.27 44.7463 1212.27 39.4801 Q1212.27 33.0797 1216.81 29.5959 Q1221.34 26.1121 1229.69 26.1121 Q1233.82 26.1121 1237.47 26.7198 Q1241.11 27.3274 1244.19 28.5427 Z" fill="#000000" fill-rule="nonzero" fill-opacity="1"></path><path clip-path="url(#clip000)" d="M1265.86 14.324 L1265.86 27.2059 L1281.22 27.2059 L1281.22 32.9987 L1265.86 32.9987 L1265.86 57.6282 Q1265.86 63.1779 1267.36 64.7578 Q1268.9 66.3376 1273.56 66.3376 L1281.22 66.3376 L1281.22 72.576 L1273.56 72.576 Q1264.93 72.576 1261.65 69.3758 Q1258.37 66.1351 1258.37 57.6282 L1258.37 32.9987 L1252.9 32.9987 L1252.9 27.2059 L1258.37 27.2059 L1258.37 14.324 L1265.86 14.324 Z" fill="#000000" fill-rule="nonzero" fill-opacity="1"></path><path clip-path="url(#clip000)" d="M1308.6 32.4315 Q1302.6 32.4315 1299.12 37.1306 Q1295.64 41.7891 1295.64 49.9314 Q1295.64 58.0738 1299.08 62.7728 Q1302.56 67.4314 1308.6 67.4314 Q1314.55 67.4314 1318.04 62.7323 Q1321.52 58.0333 1321.52 49.9314 Q1321.52 41.8701 1318.04 37.1711 Q1314.55 32.4315 1308.6 32.4315 M1308.6 26.1121 Q1318.32 26.1121 1323.87 32.4315 Q1329.42 38.7509 1329.42 49.9314 Q1329.42 61.0714 1323.87 67.4314 Q1318.32 73.7508 1308.6 73.7508 Q1298.84 73.7508 1293.29 67.4314 Q1287.78 61.0714 1287.78 49.9314 Q1287.78 38.7509 1293.29 32.4315 Q1298.84 26.1121 1308.6 26.1121 Z" fill="#000000" fill-rule="nonzero" fill-opacity="1"></path><path clip-path="url(#clip000)" d="M1371.63 49.3643 Q1371.63 41.2625 1368.27 36.8065 Q1364.95 32.3505 1358.91 32.3505 Q1352.92 32.3505 1349.55 36.8065 Q1346.23 41.2625 1346.23 49.3643 Q1346.23 57.4256 1349.55 61.8816 Q1352.92 66.3376 1358.91 66.3376 Q1364.95 66.3376 1368.27 61.8816 Q1371.63 57.4256 1371.63 49.3643 M1379.09 66.9452 Q1379.09 78.5308 1373.94 84.1616 Q1368.8 89.8329 1358.18 89.8329 Q1354.25 89.8329 1350.77 89.2252 Q1347.29 88.6581 1344 87.4428 L1344 80.1917 Q1347.29 81.9741 1350.49 82.8248 Q1353.69 83.6755 1357.01 83.6755 Q1364.34 83.6755 1367.99 79.8271 Q1371.63 76.0193 1371.63 68.282 L1371.63 64.5957 Q1369.32 68.6061 1365.72 70.5911 Q1362.11 72.576 1357.09 72.576 Q1348.74 72.576 1343.64 66.2161 Q1338.54 59.8562 1338.54 49.3643 Q1338.54 38.832 1343.64 32.472 Q1348.74 26.1121 1357.09 26.1121 Q1362.11 26.1121 1365.72 28.0971 Q1369.32 30.082 1371.63 34.0924 L1371.63 27.2059 L1379.09 27.2059 L1379.09 66.9452 Z" fill="#000000" fill-rule="nonzero" fill-opacity="1"></path><path clip-path="url(#clip000)" d="M1420.73 34.1734 Q1419.47 33.4443 1417.97 33.1202 Q1416.52 32.7556 1414.73 32.7556 Q1408.41 32.7556 1405.01 36.8875 Q1401.65 40.9789 1401.65 48.6757 L1401.65 72.576 L1394.15 72.576 L1394.15 27.2059 L1401.65 27.2059 L1401.65 34.2544 Q1404 30.1225 1407.77 28.1376 Q1411.53 26.1121 1416.92 26.1121 Q1417.69 26.1121 1418.62 26.2337 Q1419.55 26.3147 1420.69 26.5172 L1420.73 34.1734 Z" fill="#000000" fill-rule="nonzero" fill-opacity="1"></path><path clip-path="url(#clip000)" d="M1449.17 49.7694 Q1440.13 49.7694 1436.65 51.8354 Q1433.17 53.9013 1433.17 58.8839 Q1433.17 62.8538 1435.76 65.2034 Q1438.39 67.5124 1442.89 67.5124 Q1449.09 67.5124 1452.81 63.1374 Q1456.58 58.7219 1456.58 51.4303 L1456.58 49.7694 L1449.17 49.7694 M1464.03 46.6907 L1464.03 72.576 L1456.58 72.576 L1456.58 65.6895 Q1454.03 69.8214 1450.22 71.8063 Q1446.41 73.7508 1440.9 73.7508 Q1433.93 73.7508 1429.8 69.8619 Q1425.71 65.9325 1425.71 59.3701 Q1425.71 51.7138 1430.82 47.825 Q1435.96 43.9361 1446.13 43.9361 L1456.58 43.9361 L1456.58 43.2069 Q1456.58 38.0623 1453.18 35.2672 Q1449.81 32.4315 1443.7 32.4315 Q1439.81 32.4315 1436.12 33.3632 Q1432.44 34.295 1429.03 36.1584 L1429.03 29.2718 Q1433.12 27.692 1436.97 26.9223 Q1440.82 26.1121 1444.47 26.1121 Q1454.31 26.1121 1459.17 31.2163 Q1464.03 36.3204 1464.03 46.6907 Z" fill="#000000" fill-rule="nonzero" fill-opacity="1"></path><path clip-path="url(#clip000)" d="M1514.71 35.9153 Q1517.5 30.8922 1521.39 28.5022 Q1525.28 26.1121 1530.55 26.1121 Q1537.64 26.1121 1541.49 31.0947 Q1545.33 36.0368 1545.33 45.1919 L1545.33 72.576 L1537.84 72.576 L1537.84 45.4349 Q1537.84 38.913 1535.53 35.7533 Q1533.22 32.5936 1528.48 32.5936 Q1522.69 32.5936 1519.33 36.4419 Q1515.97 40.2903 1515.97 46.9338 L1515.97 72.576 L1508.47 72.576 L1508.47 45.4349 Q1508.47 38.8725 1506.16 35.7533 Q1503.85 32.5936 1499.03 32.5936 Q1493.32 32.5936 1489.96 36.4824 Q1486.6 40.3308 1486.6 46.9338 L1486.6 72.576 L1479.1 72.576 L1479.1 27.2059 L1486.6 27.2059 L1486.6 34.2544 Q1489.15 30.082 1492.71 28.0971 Q1496.28 26.1121 1501.18 26.1121 Q1506.12 26.1121 1509.57 28.6237 Q1513.05 31.1352 1514.71 35.9153 Z" fill="#000000" fill-rule="nonzero" fill-opacity="1"></path><path clip-path="url(#clip000)" d="M1582.24 27.2059 L1589.69 27.2059 L1599.01 62.6108 L1608.29 27.2059 L1617.08 27.2059 L1626.39 62.6108 L1635.67 27.2059 L1643.12 27.2059 L1631.25 72.576 L1622.46 72.576 L1612.7 35.3887 L1602.9 72.576 L1594.11 72.576 L1582.24 27.2059 Z" fill="#000000" fill-rule="nonzero" fill-opacity="1"></path><path clip-path="url(#clip000)" d="M1654.43 27.2059 L1661.88 27.2059 L1661.88 72.576 L1654.43 72.576 L1654.43 27.2059 M1654.43 9.54393 L1661.88 9.54393 L1661.88 18.9825 L1654.43 18.9825 L1654.43 9.54393 Z" fill="#000000" fill-rule="nonzero" fill-opacity="1"></path><path clip-path="url(#clip000)" d="M1684.85 14.324 L1684.85 27.2059 L1700.2 27.2059 L1700.2 32.9987 L1684.85 32.9987 L1684.85 57.6282 Q1684.85 63.1779 1686.35 64.7578 Q1687.89 66.3376 1692.54 66.3376 L1700.2 66.3376 L1700.2 72.576 L1692.54 72.576 Q1683.92 72.576 1680.63 69.3758 Q1677.35 66.1351 1677.35 57.6282 L1677.35 32.9987 L1671.88 32.9987 L1671.88 27.2059 L1677.35 27.2059 L1677.35 14.324 L1684.85 14.324 Z" fill="#000000" fill-rule="nonzero" fill-opacity="1"></path><path clip-path="url(#clip000)" d="M1747.72 45.1919 L1747.72 72.576 L1740.26 72.576 L1740.26 45.4349 Q1740.26 38.994 1737.75 35.7938 Q1735.24 32.5936 1730.22 32.5936 Q1724.18 32.5936 1720.7 36.4419 Q1717.21 40.2903 1717.21 46.9338 L1717.21 72.576 L1709.72 72.576 L1709.72 9.54393 L1717.21 9.54393 L1717.21 34.2544 Q1719.89 30.163 1723.49 28.1376 Q1727.14 26.1121 1731.88 26.1121 Q1739.7 26.1121 1743.71 30.9732 Q1747.72 35.7938 1747.72 45.1919 Z" fill="#000000" fill-rule="nonzero" fill-opacity="1"></path><path clip-path="url(#clip000)" d="M1804.88 72.576 L1781.79 12.096 L1790.33 12.096 L1809.49 63.0159 L1828.7 12.096 L1837.2 12.096 L1814.15 72.576 L1804.88 72.576 Z" fill="#000000" fill-rule="nonzero" fill-opacity="1"></path><path clip-path="url(#clip000)" d="M1859.89 49.7694 Q1850.85 49.7694 1847.37 51.8354 Q1843.89 53.9013 1843.89 58.8839 Q1843.89 62.8538 1846.48 65.2034 Q1849.11 67.5124 1853.61 67.5124 Q1859.81 67.5124 1863.53 63.1374 Q1867.3 58.7219 1867.3 51.4303 L1867.3 49.7694 L1859.89 49.7694 M1874.75 46.6907 L1874.75 72.576 L1867.3 72.576 L1867.3 65.6895 Q1864.75 69.8214 1860.94 71.8063 Q1857.13 73.7508 1851.62 73.7508 Q1844.66 73.7508 1840.52 69.8619 Q1836.43 65.9325 1836.43 59.3701 Q1836.43 51.7138 1841.54 47.825 Q1846.68 43.9361 1856.85 43.9361 L1867.3 43.9361 L1867.3 43.2069 Q1867.3 38.0623 1863.9 35.2672 Q1860.54 32.4315 1854.42 32.4315 Q1850.53 32.4315 1846.84 33.3632 Q1843.16 34.295 1839.75 36.1584 L1839.75 29.2718 Q1843.85 27.692 1847.69 26.9223 Q1851.54 26.1121 1855.19 26.1121 Q1865.03 26.1121 1869.89 31.2163 Q1874.75 36.3204 1874.75 46.6907 Z" fill="#000000" fill-rule="nonzero" fill-opacity="1"></path><path clip-path="url(#clip000)" d="M1916.4 34.1734 Q1915.14 33.4443 1913.64 33.1202 Q1912.18 32.7556 1910.4 32.7556 Q1904.08 32.7556 1900.68 36.8875 Q1897.32 40.9789 1897.32 48.6757 L1897.32 72.576 L1889.82 72.576 L1889.82 27.2059 L1897.32 27.2059 L1897.32 34.2544 Q1899.67 30.1225 1903.43 28.1376 Q1907.2 26.1121 1912.59 26.1121 Q1913.36 26.1121 1914.29 26.2337 Q1915.22 26.3147 1916.36 26.5172 L1916.4 34.1734 Z" fill="#000000" fill-rule="nonzero" fill-opacity="1"></path><path clip-path="url(#clip000)" d="M1924.22 27.2059 L1931.67 27.2059 L1931.67 72.576 L1924.22 72.576 L1924.22 27.2059 M1924.22 9.54393 L1931.67 9.54393 L1931.67 18.9825 L1924.22 18.9825 L1924.22 9.54393 Z" fill="#000000" fill-rule="nonzero" fill-opacity="1"></path><path clip-path="url(#clip000)" d="M1967.88 49.7694 Q1958.85 49.7694 1955.37 51.8354 Q1951.88 53.9013 1951.88 58.8839 Q1951.88 62.8538 1954.48 65.2034 Q1957.11 67.5124 1961.61 67.5124 Q1967.8 67.5124 1971.53 63.1374 Q1975.3 58.7219 1975.3 51.4303 L1975.3 49.7694 L1967.88 49.7694 M1982.75 46.6907 L1982.75 72.576 L1975.3 72.576 L1975.3 65.6895 Q1972.75 69.8214 1968.94 71.8063 Q1965.13 73.7508 1959.62 73.7508 Q1952.65 73.7508 1948.52 69.8619 Q1944.43 65.9325 1944.43 59.3701 Q1944.43 51.7138 1949.53 47.825 Q1954.68 43.9361 1964.85 43.9361 L1975.3 43.9361 L1975.3 43.2069 Q1975.3 38.0623 1971.89 35.2672 Q1968.53 32.4315 1962.42 32.4315 Q1958.53 32.4315 1954.84 33.3632 Q1951.15 34.295 1947.75 36.1584 L1947.75 29.2718 Q1951.84 27.692 1955.69 26.9223 Q1959.54 26.1121 1963.19 26.1121 Q1973.03 26.1121 1977.89 31.2163 Q1982.75 36.3204 1982.75 46.6907 Z" fill="#000000" fill-rule="nonzero" fill-opacity="1"></path><path clip-path="url(#clip000)" d="M2035.82 45.1919 L2035.82 72.576 L2028.36 72.576 L2028.36 45.4349 Q2028.36 38.994 2025.85 35.7938 Q2023.34 32.5936 2018.32 32.5936 Q2012.28 32.5936 2008.8 36.4419 Q2005.31 40.2903 2005.31 46.9338 L2005.31 72.576 L1997.82 72.576 L1997.82 27.2059 L2005.31 27.2059 L2005.31 34.2544 Q2007.99 30.163 2011.59 28.1376 Q2015.24 26.1121 2019.98 26.1121 Q2027.8 26.1121 2031.81 30.9732 Q2035.82 35.7938 2035.82 45.1919 Z" fill="#000000" fill-rule="nonzero" fill-opacity="1"></path><path clip-path="url(#clip000)" d="M2083.34 28.9478 L2083.34 35.9153 Q2080.18 34.1734 2076.98 33.3227 Q2073.82 32.4315 2070.57 32.4315 Q2063.32 32.4315 2059.31 37.0496 Q2055.3 41.6271 2055.3 49.9314 Q2055.3 58.2358 2059.31 62.8538 Q2063.32 67.4314 2070.57 67.4314 Q2073.82 67.4314 2076.98 66.5807 Q2080.18 65.6895 2083.34 63.9476 L2083.34 70.8341 Q2080.22 72.2924 2076.85 73.0216 Q2073.53 73.7508 2069.76 73.7508 Q2059.52 73.7508 2053.48 67.3098 Q2047.44 60.8689 2047.44 49.9314 Q2047.44 38.832 2053.52 32.472 Q2059.64 26.1121 2070.25 26.1121 Q2073.69 26.1121 2076.98 26.8413 Q2080.26 27.5299 2083.34 28.9478 Z" fill="#000000" fill-rule="nonzero" fill-opacity="1"></path><path clip-path="url(#clip000)" d="M2135.11 48.0275 L2135.11 51.6733 L2100.84 51.6733 Q2101.32 59.3701 2105.45 63.421 Q2109.63 67.4314 2117.04 67.4314 Q2121.33 67.4314 2125.34 66.3781 Q2129.39 65.3249 2133.36 63.2184 L2133.36 70.267 Q2129.35 71.9684 2125.14 72.8596 Q2120.93 73.7508 2116.59 73.7508 Q2105.74 73.7508 2099.38 67.4314 Q2093.06 61.1119 2093.06 50.3365 Q2093.06 39.1965 2099.05 32.6746 Q2105.09 26.1121 2115.3 26.1121 Q2124.45 26.1121 2129.76 32.0264 Q2135.11 37.9003 2135.11 48.0275 M2127.65 45.84 Q2127.57 39.7232 2124.21 36.0774 Q2120.89 32.4315 2115.38 32.4315 Q2109.14 32.4315 2105.37 35.9558 Q2101.65 39.4801 2101.08 45.8805 L2127.65 45.84 Z" fill="#000000" fill-rule="nonzero" fill-opacity="1"></path><path clip-path="url(#clip002)" d="M295.201 433.731 L295.201 1423.18 L703.159 1423.18 L703.159 433.731 L295.201 433.731 L295.201 433.731  Z" fill="#009af9" fill-rule="evenodd" fill-opacity="1"></path>
<polyline clip-path="url(#clip002)" style="stroke:#000000; stroke-linecap:round; stroke-linejoin:round; stroke-width:4; stroke-opacity:1; fill:none" points="295.201,433.731 295.201,1423.18 703.159,1423.18 703.159,433.731 295.201,433.731 "></polyline>
<path clip-path="url(#clip002)" d="M805.148 1341.3 L805.148 1423.18 L1213.11 1423.18 L1213.11 1341.3 L805.148 1341.3 L805.148 1341.3  Z" fill="#009af9" fill-rule="evenodd" fill-opacity="1"></path>
<polyline clip-path="url(#clip002)" style="stroke:#000000; stroke-linecap:round; stroke-linejoin:round; stroke-width:4; stroke-opacity:1; fill:none" points="805.148,1341.3 805.148,1423.18 1213.11,1423.18 1213.11,1341.3 805.148,1341.3 "></polyline>
<path clip-path="url(#clip002)" d="M1315.1 1062.05 L1315.1 1423.18 L1723.05 1423.18 L1723.05 1062.05 L1315.1 1062.05 L1315.1 1062.05  Z" fill="#009af9" fill-rule="evenodd" fill-opacity="1"></path>
<polyline clip-path="url(#clip002)" style="stroke:#000000; stroke-linecap:round; stroke-linejoin:round; stroke-width:4; stroke-opacity:1; fill:none" points="1315.1,1062.05 1315.1,1423.18 1723.05,1423.18 1723.05,1062.05 1315.1,1062.05 "></polyline>
<path clip-path="url(#clip002)" d="M1825.04 1384.56 L1825.04 1423.18 L2233 1423.18 L2233 1384.56 L1825.04 1384.56 L1825.04 1384.56  Z" fill="#009af9" fill-rule="evenodd" fill-opacity="1"></path>
<polyline clip-path="url(#clip002)" style="stroke:#000000; stroke-linecap:round; stroke-linejoin:round; stroke-width:4; stroke-opacity:1; fill:none" points="1825.04,1384.56 1825.04,1423.18 2233,1423.18 2233,1384.56 1825.04,1384.56 "></polyline>
<circle clip-path="url(#clip002)" style="fill:#009af9; stroke:none; fill-opacity:0" cx="499.18" cy="433.731" r="2"></circle>
<circle clip-path="url(#clip002)" style="fill:#009af9; stroke:none; fill-opacity:0" cx="1009.13" cy="1341.3" r="2"></circle>
<circle clip-path="url(#clip002)" style="fill:#009af9; stroke:none; fill-opacity:0" cx="1519.07" cy="1062.05" r="2"></circle>
<circle clip-path="url(#clip002)" style="fill:#009af9; stroke:none; fill-opacity:0" cx="2029.02" cy="1384.56" r="2"></circle>
<polyline clip-path="url(#clip002)" style="stroke:#000000; stroke-linecap:round; stroke-linejoin:round; stroke-width:4; stroke-opacity:1; fill:none" points="499.18,525.634 499.18,341.828 "></polyline>
<polyline clip-path="url(#clip002)" style="stroke:#000000; stroke-linecap:round; stroke-linejoin:round; stroke-width:4; stroke-opacity:1; fill:none" points="1009.13,1374.51 1009.13,1308.08 "></polyline>
<polyline clip-path="url(#clip002)" style="stroke:#000000; stroke-linecap:round; stroke-linejoin:round; stroke-width:4; stroke-opacity:1; fill:none" points="1519.07,1100.55 1519.07,1023.54 "></polyline>
<polyline clip-path="url(#clip002)" style="stroke:#000000; stroke-linecap:round; stroke-linejoin:round; stroke-width:4; stroke-opacity:1; fill:none" points="2029.02,1410.15 2029.02,1358.97 "></polyline>
<line clip-path="url(#clip002)" x1="515.18" y1="525.634" x2="483.18" y2="525.634" style="stroke:#000000; stroke-width:4; stroke-opacity:1"></line>
<line clip-path="url(#clip002)" x1="515.18" y1="341.828" x2="483.18" y2="341.828" style="stroke:#000000; stroke-width:4; stroke-opacity:1"></line>
<line clip-path="url(#clip002)" x1="1025.13" y1="1374.51" x2="993.127" y2="1374.51" style="stroke:#000000; stroke-width:4; stroke-opacity:1"></line>
<line clip-path="url(#clip002)" x1="1025.13" y1="1308.08" x2="993.127" y2="1308.08" style="stroke:#000000; stroke-width:4; stroke-opacity:1"></line>
<line clip-path="url(#clip002)" x1="1535.07" y1="1100.55" x2="1503.07" y2="1100.55" style="stroke:#000000; stroke-width:4; stroke-opacity:1"></line>
<line clip-path="url(#clip002)" x1="1535.07" y1="1023.54" x2="1503.07" y2="1023.54" style="stroke:#000000; stroke-width:4; stroke-opacity:1"></line>
<line clip-path="url(#clip002)" x1="2045.02" y1="1410.15" x2="2013.02" y2="1410.15" style="stroke:#000000; stroke-width:4; stroke-opacity:1"></line>
<line clip-path="url(#clip002)" x1="2045.02" y1="1358.97" x2="2013.02" y2="1358.97" style="stroke:#000000; stroke-width:4; stroke-opacity:1"></line>
<circle clip-path="url(#clip002)" cx="499.18" cy="1237.51" r="14.4" fill="#ff0000" fill-rule="evenodd" fill-opacity="1" stroke="#000000" stroke-opacity="1" stroke-width="3.2"></circle>
<circle clip-path="url(#clip002)" cx="1009.13" cy="1348.91" r="14.4" fill="#ff0000" fill-rule="evenodd" fill-opacity="1" stroke="#000000" stroke-opacity="1" stroke-width="3.2"></circle>
<circle clip-path="url(#clip002)" cx="1519.07" cy="1293.21" r="14.4" fill="#ff0000" fill-rule="evenodd" fill-opacity="1" stroke="#000000" stroke-opacity="1" stroke-width="3.2"></circle>
<circle clip-path="url(#clip002)" cx="2029.02" cy="1348.91" r="14.4" fill="#ff0000" fill-rule="evenodd" fill-opacity="1" stroke="#000000" stroke-opacity="1" stroke-width="3.2"></circle>
<circle clip-path="url(#clip002)" cx="499.18" cy="1237.51" r="14.4" fill="#ff0000" fill-rule="evenodd" fill-opacity="1" stroke="#000000" stroke-opacity="1" stroke-width="3.2"></circle>
<circle clip-path="url(#clip002)" cx="1009.13" cy="1330.34" r="14.4" fill="#ff0000" fill-rule="evenodd" fill-opacity="1" stroke="#000000" stroke-opacity="1" stroke-width="3.2"></circle>
<circle clip-path="url(#clip002)" cx="1519.07" cy="1274.64" r="14.4" fill="#ff0000" fill-rule="evenodd" fill-opacity="1" stroke="#000000" stroke-opacity="1" stroke-width="3.2"></circle>
<circle clip-path="url(#clip002)" cx="2029.02" cy="1367.48" r="14.4" fill="#ff0000" fill-rule="evenodd" fill-opacity="1" stroke="#000000" stroke-opacity="1" stroke-width="3.2"></circle>
<circle clip-path="url(#clip002)" cx="499.18" cy="1237.51" r="14.4" fill="#ff0000" fill-rule="evenodd" fill-opacity="1" stroke="#000000" stroke-opacity="1" stroke-width="3.2"></circle>
<circle clip-path="url(#clip002)" cx="1009.13" cy="1348.91" r="14.4" fill="#ff0000" fill-rule="evenodd" fill-opacity="1" stroke="#000000" stroke-opacity="1" stroke-width="3.2"></circle>
<circle clip-path="url(#clip002)" cx="1519.07" cy="1293.21" r="14.4" fill="#ff0000" fill-rule="evenodd" fill-opacity="1" stroke="#000000" stroke-opacity="1" stroke-width="3.2"></circle>
<circle clip-path="url(#clip002)" cx="2029.02" cy="1348.91" r="14.4" fill="#ff0000" fill-rule="evenodd" fill-opacity="1" stroke="#000000" stroke-opacity="1" stroke-width="3.2"></circle>
<circle clip-path="url(#clip002)" cx="499.18" cy="1237.51" r="14.4" fill="#ff0000" fill-rule="evenodd" fill-opacity="1" stroke="#000000" stroke-opacity="1" stroke-width="3.2"></circle>
<circle clip-path="url(#clip002)" cx="1009.13" cy="1330.34" r="14.4" fill="#ff0000" fill-rule="evenodd" fill-opacity="1" stroke="#000000" stroke-opacity="1" stroke-width="3.2"></circle>
<circle clip-path="url(#clip002)" cx="1519.07" cy="1274.64" r="14.4" fill="#ff0000" fill-rule="evenodd" fill-opacity="1" stroke="#000000" stroke-opacity="1" stroke-width="3.2"></circle>
<circle clip-path="url(#clip002)" cx="2029.02" cy="1367.48" r="14.4" fill="#ff0000" fill-rule="evenodd" fill-opacity="1" stroke="#000000" stroke-opacity="1" stroke-width="3.2"></circle>
</svg>